<svg width="30" height="31" viewBox="0 0 22 23" fill="none" xmlns="http://www.w3.org/2000/svg">
<path d="M9 4.81818V18.6591M9 4.81818H5M9 4.81818H11M13 4.81818V18.6591M13 4.81818H11M13 4.81818H17M3 8.63636H1.8C1.35817 8.63636 1 8.27819 1 7.83636V5.61818C1 5.17635 1.35817 4.81818 1.8 4.81818H5M3 8.63636V17.8591C3 18.3009 3.35817 18.6591 3.8 18.6591H9M3 8.63636H9M9 18.6591V21.2989C9 21.5628 9.31623 21.6981 9.50714 21.5159L11 20.0909L12.4929 21.5159C12.6838 21.6981 13 21.5628 13 21.2989V18.6591M13 18.6591H18.2C18.6418 18.6591 19 18.3009 19 17.8591V8.63636M19 8.63636H20.2C20.6418 8.63636 21 8.27819 21 7.83636V5.61818C21 5.17635 20.6418 4.81818 20.2 4.81818H17M19 8.63636H13M5 4.81818V3.16541C5 1.99832 6.01833 1.10729 7.04579 1.66084C8.36386 2.37097 9.68193 3.56003 11 4.81818M11 4.81818C12.3181 3.56003 13.6361 2.37097 14.9542 1.66084C15.9817 1.10729 17 1.99832 17 3.16541V4.81818" stroke="#54A62B" stroke-width="2"/>
</svg>
